<svg id="Capa_1" data-name="Capa 1" xmlns="http://www.w3.org/2000/svg" viewBox="0 0 68.36 68.36"><defs><style>.cls-1{fill:#040006;}.cls-2{fill:#399a71;}.cls-3{fill:#785b9a;}.cls-4{fill:#c65135;}.cls-5{fill:#cc6a63;}.cls-6{fill:#34a3da;}</style></defs><title>icons</title><rect class="cls-1" y="-0.04" width="68.36" height="68.36" rx="7.82"/><path class="cls-2" d="M25.91,59a8.27,8.27,0,0,0,8.27-8.27V42.41H25.91a8.27,8.27,0,1,0,0,16.54Z"/><path class="cls-3" d="M17.64,34.14a8.27,8.27,0,0,1,8.27-8.27h8.27V42.41H25.91A8.27,8.27,0,0,1,17.64,34.14Z"/><path class="cls-4" d="M17.64,17.6a8.28,8.28,0,0,1,8.27-8.28h8.27V25.87H25.91A8.27,8.27,0,0,1,17.64,17.6Z"/><path class="cls-5" d="M34.18,9.32h8.27a8.28,8.28,0,0,1,0,16.55H34.18Z"/><path class="cls-6" d="M50.72,34.14a8.27,8.27,0,1,1-8.27-8.27A8.27,8.27,0,0,1,50.72,34.14Z"/></svg>