<svg id="Capa_1" data-name="Capa 1" xmlns="http://www.w3.org/2000/svg" viewBox="0 0 68.36 68.36"><defs><style>.cls-1{fill:#fff;}.cls-2{fill:#c64f3c;}</style></defs><title>icons</title><rect class="cls-1" y="-0.04" width="68.36" height="68.36" rx="7.82"/><path class="cls-2" d="M59.77,31.77,36.55,8.55a3.42,3.42,0,0,0-4.84,0l-4.83,4.82L33,19.49a4.06,4.06,0,0,1,5.15,5.18l5.9,5.9a4.08,4.08,0,1,1-2.44,2.3l-5.5-5.5V41.84a4.19,4.19,0,0,1,1.08.77,4.08,4.08,0,1,1-4.43-.89V27.12a4.18,4.18,0,0,1-1.34-.89,4.11,4.11,0,0,1-.88-4.46l-6-6L8.59,31.66a3.43,3.43,0,0,0,0,4.85L31.81,59.73a3.43,3.43,0,0,0,4.85,0L59.77,36.62a3.43,3.43,0,0,0,0-4.85"/></svg>