<svg id="Capa_1" data-name="Capa 1" xmlns="http://www.w3.org/2000/svg" xmlns:xlink="http://www.w3.org/1999/xlink" viewBox="0 0 68.36 68.36"><defs><style>.cls-1{fill:none;}.cls-2{clip-path:url(#clip-path);}.cls-3{fill:#e5d153;}.cls-4{fill:#31322f;}</style><clipPath id="clip-path"><rect class="cls-1" y="-0.04" width="68.36" height="68.36" rx="9.7"/></clipPath></defs><title>icons</title><g class="cls-2"><path class="cls-3" d="M0-.09H68.41V68.36H0Z"/><path class="cls-4" d="M62.8,52c-.5-3.12-2.53-5.75-8.57-8.19-2.09-1-4.43-1.66-5.12-3.24a3.6,3.6,0,0,1-.13-2c.45-1.81,2.62-2.38,4.34-1.86a4.8,4.8,0,0,1,2.78,2.58c3-1.91,2.95-1.9,5-3.21a12.74,12.74,0,0,0-1.65-2.21c-1.78-2-4.2-3-8.07-2.93l-2,.26a9.16,9.16,0,0,0-4.85,2.86,9,9,0,0,0,1.63,12.76c3.88,2.92,9.59,3.58,10.32,6.31.71,3.34-2.46,4.42-5.6,4-2.32-.48-3.6-1.66-5-3.8-2.56,1.49-2.56,1.49-5.2,3A11.73,11.73,0,0,0,43,59.56c5,5,17.37,4.78,19.6-2.83A9.34,9.34,0,0,0,62.8,52ZM37.17,31.37h-6.4c0,5.53,0,11,0,16.56,0,3.52.18,6.74-.39,7.73-.94,2-3.37,1.71-4.47,1.33a5.44,5.44,0,0,1-2.36-2.45,3.48,3.48,0,0,0-.37-.59L18,57.14a10.23,10.23,0,0,0,3.77,4.32,12.49,12.49,0,0,0,9.15,1.13A8.1,8.1,0,0,0,36,58.54c1.45-2.69,1.14-5.94,1.13-9.54,0-5.87,0-11.74,0-17.63Z"/></g></svg>