<svg id="Capa_1" data-name="Capa 1" xmlns="http://www.w3.org/2000/svg" viewBox="0 0 68.36 68.36"><defs><style>.cls-1{fill:#333233;}.cls-2{fill:#529442;}</style></defs><title>icons</title><rect class="cls-1" y="-0.04" width="68.36" height="68.36" rx="8.5"/><path class="cls-2" d="M34.18,62.22A4.55,4.55,0,0,1,32,61.66l-6.86-4.08c-1-.57-.52-.77-.21-.88A12.36,12.36,0,0,0,28,55.31a.49.49,0,0,1,.52,0l5.26,3.15a.68.68,0,0,0,.62,0L55,46.59a.6.6,0,0,0,.31-.57V22.23a.61.61,0,0,0-.31-.57L34.44,9.8a.62.62,0,0,0-.62,0L13.23,21.66a.66.66,0,0,0-.31.57V46a.65.65,0,0,0,.31.57l5.63,3.25c3,1.55,4.95-.26,4.95-2.06V24.3a.63.63,0,0,1,.62-.62h2.63a.62.62,0,0,1,.62.62V47.78c0,4.07-2.22,6.45-6.09,6.45-1.19,0-2.12,0-4.75-1.29l-5.42-3.1a4.35,4.35,0,0,1-2.16-3.77V22.28a4.35,4.35,0,0,1,2.16-3.76L32,6.6a4.57,4.57,0,0,1,4.34,0L56.94,18.52a4.35,4.35,0,0,1,2.17,3.76V46.07a4.36,4.36,0,0,1-2.17,3.77L36.35,61.76a5.29,5.29,0,0,1-2.17.46Zm6.35-16.35c-9,0-10.89-4.13-10.89-7.64a.63.63,0,0,1,.62-.62h2.68a.54.54,0,0,1,.57.52c.41,2.73,1.6,4.07,7.07,4.07,4.33,0,6.19-1,6.19-3.3,0-1.34-.51-2.32-7.27-3-5.63-.57-9.14-1.81-9.14-6.3,0-4.18,3.51-6.66,9.39-6.66,6.61,0,9.86,2.27,10.27,7.23a.84.84,0,0,1-.15.46.63.63,0,0,1-.41.21H46.77a.62.62,0,0,1-.57-.47c-.61-2.83-2.21-3.76-6.45-3.76-4.74,0-5.31,1.65-5.31,2.89,0,1.49.67,2,7.07,2.78s9.34,2,9.34,6.45S47.08,45.87,40.53,45.87Z"/></svg>